/* XPM */
static char *result[] = {
/* columns rows colors chars-per-pixel */
"90 90 68 1 ",
"  c #F8A423",
". c #F8A525",
"X c #F8A526",
"o c #F7A62A",
"O c #F8A628",
"+ c #F8A62A",
"@ c #F8A72A",
"# c #F9A72F",
"$ c #F4AB3B",
"% c #F9AA38",
"& c #F8AD3E",
"* c #FAAB42",
"= c #FAAC47",
"- c #F9AF47",
"; c #F9B354",
": c #F9B860",
"> c #F9B968",
", c #F9B96B",
"< c #FBC46F",
"1 c #D0BD9F",
"2 c #CEBFA5",
"3 c #F4C681",
"4 c #FCD18F",
"5 c #D6C6AE",
"6 c #DDCAAA",
"7 c #DDCFBB",
"8 c #F2D4A7",
"9 c #FBD9A5",
"0 c #ECD9B9",
"q c #FDE2B8",
"w c #FDE3BC",
"e c #C0C7CE",
"r c #D6D2C8",
"t c #C1C9D1",
"y c #C8CFD6",
"u c #CCD3DA",
"i c #CED5DC",
"p c #D1D8DF",
"a c #EFDFC5",
"s c #E4DFD4",
"d c #F0E0CC",
"f c #EAE4DA",
"g c #EFE7D9",
"h c #EFE7DB",
"j c #EEE7DE",
"k c #EFE9DF",
"l c #F0E8DC",
"z c #F2EADE",
"x c #FEF1DB",
"c c #D2D9E0",
"v c #D1D9E2",
"b c #D4DBE1",
"n c #D3DBE4",
"m c #E2E8ED",
"M c #F4ECE2",
"N c #F6EFE5",
"B c #F8F1E8",
"V c #FAF3E9",
"C c #FAF5ED",
"Z c #E6EBF0",
"A c #EBEEF1",
"S c #E8EDF2",
"D c #E9EEF4",
"F c #EFF1F2",
"G c #FEF9F1",
"H c #FFFAF3",
"J c #FFFCF7",
"K c None",
/* pixels */
"KKKKKKKKKKKKKKKKKKKKHHHHHHHHHHHHHHHHHHHHHHHHHHHHHHHHKKKKKKKKKKKKKKKKKKKKKKKKKKKKKKKKKKKKKK",
"KKKKKKKKKKKKKKKKKKKKHHHHHHHHHHHHHHHHHHHHHHHHHHHHHHHHKKKKKKKKKKKKKKKKKKKKKKKKKKKKKKKKKKKKKK",
"KKKKKKKKKKKKKKKKKKKKHHHHHHHHHHHHHHHHHHHHHHHHHHHHHHHHKKKKKKKKKKKKKKKKKKKKKKKKKKKKKKKKKKKKKK",
"KKKKKKKKKKKKKKKKKKKKHHHHHHHHHHHHHHHHHHHHHHHHHHHHHHHHKKKKKKKKKKKKKKKKKKKKKKKKKKKKKKKKKKKKKK",
"KKKKKKKKKKKKKKKKHHHHHHHHHHHHHHHHHGBBBBGHHHHHHHHHHHHHHHHHHHHHKKKKKKKKKKKKKKKKKKKKKKKKKKKKKK",
"KKKKKKKKKKKKKKKKGHHHHHHHHHHHHHHHHChhhhCHHHHHHHHHHHHHHHHHHHHHHKKKKKKKKKKKKKKKKKKKKKKKKKKKKK",
"KKKKKKKKKKKKKKKKGHHHHHHHHHHHHHHHHChhhhCHHHHHHHHHHHHHHHHHHHHHHKKKKKKKKKKKKKKKKKKKKKKKKKKKKK",
"KKKKKKKKKKKKKKKKGHHHHHHHHHHHHHHHHChhhhCHHHHHHHHHHHHHHHHHHHHHHKKKKKKKKKKKKKKKKKKKKKKKKKKKKK",
"KKKKKKKKKKKKKKKKGHHHGGGGGHHHHHHHHCzzzzCHHHHHHHHHHHHHHHHHHHHHHKKKKKKKKKKKKKKKKKKKKKKKKKKKKK",
"KKKKKKKKKKKHHHHHHHHHNzzzNHHHHHHHHGGGGGGHHHHHHHHHHHHHHHHHHHHHGHHHHKKKKKKKKKKKKKKKKKKKKKKKKK",
"KKKKKKKKKKKHHHHJHHHHMhhhMHHHHHHHHHHHHHHHHHHHHHHHHHHHHHHHHHHHHHHHGKKKKKKKKKKKKKKKKKKKKKKKKK",
"KKKKKKKKKKKHHHHHHHHHMhhhMHHHHHHHHHHHHHHHHHHHHHHHHHHHHHHHHHHHHHHHGKKKKKKKKKKKKKKKKKKKKKKKKK",
"KKKKKKKKKKKHHHHHHHHHMhhhMHHHHHHHHHHHHHHHHHHHHHHHHHHHHHHHHHHHHHHHGKKKKKKKKKKKKKKKKKKKKKKKKK",
"KKKKKKKHHHHHHHHHHHHHVBBBVHHHHHHHHHHHHHHHHHHHHHHVBBBVHHHHHHHHGBBBNKKKKKKKKKKKKKKKKKKKKKKKKK",
"KKKKKKKGHHHHHHHHHHHHHHHHHHHHHHHHHHHHHHHHHHHHHHHMhhhMHHHHHHHHChhhgKKKKKKKKKKKKKKKKKKKKKKKKK",
"KKKKKKKGHHHHHHHHHHHHHHHHHHHHHHHHHHHHHHHHHHHHHHHMhhhMHHHHHHHHChhhgKKKKKKKKKKKKKKKKKKKKKKKKK",
"KKKKKKKGHHHHHHHHHHHHHHHHHHHHHHHHHHHHHHHHHHHHHHHMhhhMHHHHHHHHChhhgKKKKKKKKKKKKKKKKKKKKKKKKK",
"KKKKKKKGHHHHHHHHHHHHHHHHHHHHHGGGGGGGGGGGGGGHHHHNzzzNHHHHGGGGBjjjjKKKKKKKKKKKKKKKKKKKKKKKKK",
"KKKKKKKGHHHHHHHHHHHHHHHHHHHHHNzzzzzzzzzzzzNHHHHGGGGGHHHHNzzzlKKKKKKKKKKKKKKKKKKKKKKKKKKKKK",
"KKKKKKKGHHHHHHHHHHHHHHHHHHHHHMhhhhhhhhhhhhMHHHHHHHHHHHHHMhhhlKKKKKKKKKKKKKKKKKKKKKKKKKKKKK",
"KKKKKKKGHHHHHHHHHHHHHHHHHHHHHMhhhhhhhhhhhhMHHHHHHHHHHHHHMhhhlKKKKKKKKKKKKKKKKKKKKKKKKKKKKK",
"KKKKKKKGHHHHHHHHHHHHHHHHHHHHHMhkkkkkkkkkkhMHHHHHHHHHHHHHMhhhlKKKKKKKKKKKKKKKKKKKKKKKKKKKKK",
"KKKKKKKHHHHHHHHGBBBBGHHHHHHHG93333333333338NBBBGHHHHHHHHVBBBASSSSSSSSSiiiiSSSSKKKKKKKKKKKK",
"KKKKKKKKKKKHHHHChhhhCHHHHHHHG:            ;ghhhCHHHHHHHHHHHHCSSSSSSSSmcppcmSSSSKKKKKKKKKKK",
"KKKKKKKKKKKHHHHChhhhCHHHHHHHG: XXXXXXXXXX :ghhhCHHHHHHHHHHHHCSSSSSSSSmcppcmSSSSKKKKKKKKKKK",
"KKKKKKKKKKKHHHHChhhhCHHHHHHHG: XXXXXXXXXX :ghhhCHHHHHHHHHHHHGSSSSSSSSmcppcmSSSSKKKKKKKKKKK",
"KKKKKKKKKKKHGGGCzzzzCHHHGGGGC: XXXXXXXXXX ;aaaaVHHHHHHHHGGGGFZZZZZZZZmppppmZZZSKKKKKKKKKKK",
"KKKKKKKKKKKSDDSFGGGGGHHHCzzzh: XXXXXXXXXXX@&&&&wJHHHHHHHNzzzfbbbbbbbbbppppbbbbpppppKKKKKKK",
"KKKKKKKKKKKSSSSFHHHHHHHHChhhg: XXXXXXXXXXXX.. OqJHHHHHHHMhhhfppppppppppppppppppppppKKKKKKK",
"KKKKKKKKKKKSSSSFHHHHHHHHChhhg: XXXXXXXXXXXXXXX@qJHHHHHHHMhhhfppppppppppppppppppppppKKKKKKK",
"KKKKKKKKKKKSSSSFHHHHHHHHCkkkh: XXXXXXX.....XXX@qJHHHHHHHMhhhfppppppppppppppppppppppKKKKKKK",
"KKKKKKKKKKKSSSSFHHHHVBBBd3333&.XXXXXXX&---&XXX@qJHHGBBBBMkkkjiiiiiiiiiiiiipppppppppKKKKKKK",
"KKKKKKKKKKKSSSSFHHHHMhhk8O   .XXXXXXXO;,,,;OXX@qJHHChhhhZSDDSKKKKKKKKKKKKKpppppppppKKKKKKK",
"KKKKKKKKKKKSSSSFHHHHMhhk8+XXXXXXXXXXXX;,>,;XXX@qJHHChhhhZSSSSKKKKKKKKKKKKKpppppppppKKKKKKK",
"KKKKKKKKKKKSSSSFHHHHMhhk8+XXXXXXXXXXXO;,,,;OXX@qJHHChhhhZSSSSKKKKKKKKKKKKKpppppppppKKKKKKK",
"KKKKKKKKKKKSSSSFHHHHMhhk8+XXXXXXXXXXXX;:::;XXX@qJHHVaaaakSSSSKKKKKKKKKKKKKpppppppppKKKKKKK",
"KKKKKKKKKKKSSSSFHHHHMhhk8+XXXXXXXXXXXX@###@XXX@qJHJw&&&&aDSSSKKKKKKKKKKKKKpppppppppKKKKKKK",
"KKKKKKKKKKKSSSSFHHHHMhhk8+XXXXXXXXXXXXX...XXXX@qJHJq@  +0DSSSKKKKKKKKKKKKKpppppppppKKKKKKK",
"KKKKKKKKKKKSSSSFHHHHMhhk8+XXXXXXXXXXXXXXXXXXXX@qJHJq@XX@0DSSSKKKKKKKKKKKKKpppppppppKKKKKKK",
"KKKKKKKKKKKSSSSFHHHHMhhk8+XXXXXXXXXXXXXXXXXXXX@qJJJw@XX@0DSSSKKKKKKKKKKKKKpppppppppKKKKKKK",
"KKKKKKKKKKKSSSSFHHHHMhhk8+XXXXXXXXXXXXXXXXXXXXO<444<OXX@0DSSSKKKKKKKKKKKKKpppppppppKKKKKKK",
"KKKKKKKKKKKSSSSFHHHHMhhk8+XXXXXXXXXXXXXXXXXXXXX     XXX@0DSSSKKKKKKKKKKKKKpppppppppKKKKKKK",
"KKKKKKKKKKKSSSSFHHHHMhhk8+XXXXXXXXXXXXXXXXXXXXXXXXXXXXX@0DSSSKKKKKKKKKKKKKpppppppppKKKKKKK",
"KKKKKKKKKKKSSSSFHHHHMhhk8+XXXXXXXXXXXXXXXXXXXXX.   .XXX@0DSSSKKKKKKKKKKKKKpppppppppKKKKKKK",
"KKKKKKKKKKKSSSSFxxxxzhhk8+XXXO+++OXXXXXXXXXXXXX%&&&%XXX@0SZZSKKKKKKKKKKKKKppppppuppKKKKKKK",
"KKKKKKKKKKKSSSSa-&&-8hhk8+XXX%***%XXXXXXXXXXXX@9xxx9@XXo6nbbpKKKKKKKKKKKKKpppputtteKKKKKKK",
"KKKKKKKKKKKSSSD0O  O8khk8+XXX&===&XXXXXXXXXXXX@qJHJw@XXo6vpppKKKKKKKKKKKKKppppueeeeKKKKKKK",
"KKKKKKKKKKKSSSD0@XX@8khk8+XXX&===&XXXXXXXXXXXX@qJHJq@XXo6vpppKKKKKKKKKKKKKppppueeeeKKKKKKK",
"KKKKKKKKKKKSSSD0@XX@8kkk8+XXX&===&XXXXXXXXXXXX@qJJJw@XXo6vpppKKKKKKKKKKKKKppppueeeeKKKKKKK",
"KKKKKKKKKKKSSSD0@XXo>333>OXXX#%%%#XXXXXXXXXXXXO<444<OXXo6vpppKKKKKKKKKKKKKppppueeeeKKKKKKK",
"KKKKKKKKKKKSSSD0@XXX     XXXXXXXXXXXXXXXXXXXXXX     XXXo6vpppKKKKKKKKKKKKKppppueeeeKKKKKKK",
"KKKKKKKKKKKSSSD0@XXXXXXXXXXXXXXXXXXXXXXXXXXXXXXXXXXXXXXo6vpppKKKKKKKKKKKKKppppueeeeKKKKKKK",
"KKKKKKKKKKKSSSD0@XXXX...XXXXXXXXXXXXXXXXXXXXXXXXXXXXXXXo6vpppKKKKKKKKKKKKKppppueeeeKKKKKKK",
"KKKKKKKKKKKSSSD0@XXX@###@XXXXXXXXXXXXXXXXXX++++XXXXXXXXo6vpppKKKKKKKKKKKKKppppueeeeKKKKKKK",
"KKKKKKKKKKKSSSD0@XXX;:::;XXXXXXXXXXXXXXXXX#****#XXXXXXXo6vpppKKKKKKKKKKKKKppppueeeeKKKKKKK",
"KKKKKKKKKKKSSSD0@XXO;,,,;OXXXXXXXXXXXXXXX.#====#.XXXXXXo6vpppKKKKKKKKKKKKKppppueeeeKKKKKKK",
"KKKKKKKKKKKSSSD0@XXX;,>,;XXXXXXXXXXXXXXXX.#====#.XXXXXXo6vpppKKKKKKKKKKKKKppppueeeeKKKKKKK",
"KKKKKKKKKKKSSSD0@XXO;,,,;OXXXXXXXXXXXXXXX.#====#.XXXXXXo6vpppKKKKKKKKKKKKKppppueeeeKKKKKKK",
"KKKKKKKKKKKSSSD0@XXX&---&XXXXXXXXXXXXXXXXX+%%%%+XXXXXXXo6vpppKKKKKKKKKKKKKppppueeeeKKKKKKK",
"KKKKKKKKKKKSSSD0@XXX.....XXXXXXXXXXXXXXXXXXXXXXXXXXXXXXo6vpppKKKKKKKKKKKKKppppueeeeKKKKKKK",
"KKKKKKKKKKKSSSD0@XXXXXXXXXXXXXXXXXXXXXXXXXXXXXXXXXXXXXXo6vpppKKKKKKKKKKKKKppppueeeeKKKKKKK",
"KKKKKKKKKKKSSSD0@XXXXXXXXXXXXXXXXXXXXXXXXXXXXXXXXXXX...o6vpppKKKKKKKKKKKKKppppueeeeKKKKKKK",
"KKKKKKKKKKKSSSD0@XXXXXXXX++++XXXXXXXXXXXXXXXXXXXXXXO####6vpppKKKKKKKKKKKKKppppueeeeKKKKKKK",
"KKKKKKKKKKKSSSD0@XXXXXXX#****#XXXXXXXXXXXXXXXXXXXX.%::::7vppueeeeupppppppptttteeeeeKKKKKKK",
"KKKKKKKKKKKSSSD0@XXXXXX.#====#.XXXXXXXXXXXXXXXXXXX.%>,>,7vppueeeeuppppppppyeeeeeeeeKKKKKKK",
"KKKKKKKKKKKSSSD0@XXXXXX.#====#.XXXXXXXXXXXXXXXXXXX.%>>>,7vppueeeeuppppppppteeeeeeeeKKKKKKK",
"KKKKKKKKKKKSSSD0@...XXX.#====#.XXXXXXX.....XXXXXXX.%>,,,7vpcueeeeucpppppppyeeeeeeeeKKKKKKK",
"KKKKKKKKKKKSSSDa----#.XX+%%%%+XXXXXXXX&---&XXXXXXX.#----5yyyyeeeeyyyyyyyyyteeeeiiiiKKKKKKK",
"KKKKKKKKKKKSSSDd,,,>%.XXXXXXXXXXXXXXXO;,,,;OXXXXXXXX...o1eeeeeeeeeeeeeeeeeeeeeeKKKKKKKKKKK",
"KKKKKKKKKKKSSSDd,>>>%.XXXXXXXXXXXXXXXX;,>,;XXXXXXXXXXXXo1teeeeeeeeeeeeeeeeeeeeeKKKKKKKKKKK",
"KKKKKKKKKKKSSSDd,>,>%.XXX....XXXXXXXXO;,,,;OXXXXXXXXXXXo1teeeeeeeeeeeeeeeeeeeeeKKKKKKKKKKK",
"KKKKKKKKKKKSZZZa::::%.XXO####OXXXXXXXX;:::;XXXXO+++OXXXo1teeeeeeeeeeeeeeeeeeeeeKKKKKKKKKKK",
"KKKKKKKKKKKpbbn6####OXX.%::::%.XXXXXXX@###@XXXX%***%XXXo1teeeKKKKKKKKKKKKKKKKKKKKKKKKKKKKK",
"KKKKKKKKKKKpppv6o...XXX.%>,,>%.XXXXXXXX...XXXXX&===&XXXo1teeeKKKKKKKKKKKKKKKKKKKKKKKKKKKKK",
"KKKKKKKKKKKpppv6oXXXXXX.%>>>>%.XXXXXXXXXXXXXXXX&===&XXXo1teeeKKKKKKKKKKKKKKKKKKKKKKKKKKKKK",
"KKKKKKKKKKKpppv6oXXXXXX.%>,,>%.XXXXXXXXXXXXXXXX&===&XXXo1teeeKKKKKKKKKKKKKKKKKKKKKKKKKKKKK",
"KKKKKKKKKKKpppv6oXXXXXX.#----#.XXXXXXXXXXXXXXXX#%%%#XXXo1teeeKKKKKKKKKKKKKKKKKKKKKKKKKKKKK",
"KKKKKKKKKKKpppv6oXXXXXXXX....XXXXXXXXXXXXXXXXXXXXXXXXXXo1teeeKKKKKKKKKKKKKKKKKKKKKKKKKKKKK",
"KKKKKKKKKKKpppv6oXXXXXXXXXXXXXXXXXXXXXXXXXXXXXXXXXXXXXXo1teeeKKKKKKKKKKKKKKKKKKKKKKKKKKKKK",
"KKKKKKKKKKKpppv6o                 ....     ............o1teeeKKKKKKKKKKKKKKKKKKKKKKKKKKKKK",
"KKKKKKKKKKKpbbn7&&&&&&&&&&&&&&&&&&$$$$&&&&&$$$$$$$$$$$$$2eeeeKKKKKKKKKKKKKKKKKKKKKKKKKKKKK",
"KKKKKKKAAAAmZZZmfffffffffffffffffsrrrrsfffsrrrrrrrrrrrrreeeeeeeeeKKKKKKKKKKKKKKKKKKKKKKKKK",
"KKKKKKKZSSSSSSSSDDDDDDDDDDDDDDDDDmvppvmDDDmvpvvvvvvvvvvpyeeeeeeeeKKKKKKKKKKKKKKKKKKKKKKKKK",
"KKKKKKKZSSSSSSSSSSSSSSSSSSSSSSSSSmcppcmSSSmpppppppppppppteeeeeeeeKKKKKKKKKKKKKKKKKKKKKKKKK",
"KKKKKKKSDDDDDDDDDDDDDDDDDDDDDDDDDmcppcmDDDmcppppppppppppyeeeeeeeeKKKKKKKKKKKKKKKKKKKKKKKKK",
"KKKKKKKpbbbbbbbbbbbbbbbbbbbbbbbbbpyyyypbbbpyyyyyyyyyyyyyteeeeeeeeKKKKKKKKKKKKKKKKKKKKKKKKK",
"KKKKKKKeeeeeeeeeeeeeeeeeeeeeeeeeeeeeeeeeeeeeeeeeeeeeeeeeeeeeeeeeeKKKKKKKKKKKKKKKKKKKKKKKKK",
"KKKKKKKeeeeeeeeeeeeeeeeeeeeeeeeeeeeeeeeeeeeeeeeeeeeeeeeeeeeeeeeeeKKKKKKKKKKKKKKKKKKKKKKKKK",
"KKKKKKKeeeeeeeeeeeeeeeeeeeeeeeeeeeeeeeeeeeeeeeeeeeeeeeeeeeeeeeeeeKKKKKKKKKKKKKKKKKKKKKKKKK",
"KKKKKKKeeeeeeeeeeeeeeeeeeeeeeeeeeeeeeeeeeeeeeeeeeeeeeeeeeeeeeeeeeKKKKKKKKKKKKKKKKKKKKKKKKK"
};
