/* XPM */
static char *result[] = {
/* columns rows colors chars-per-pixel */
"90 90 163 2 ",
"   c #00450F",
".  c #004611",
"X  c #004A15",
"o  c #00461B",
"O  c #024C18",
"+  c #084D1B",
"@  c #015216",
"#  c #03541B",
"$  c #08511B",
"%  c #055A1D",
"&  c #095D1E",
"*  c #016514",
"=  c #06611D",
"-  c #0D631E",
";  c #017B15",
":  c #067E1E",
">  c #087E1E",
",  c #014F23",
"<  c #035522",
"1  c #055C21",
"2  c #0A5E22",
"3  c #015529",
"4  c #03592A",
"5  c #066322",
"6  c #0A6423",
"7  c #076B25",
"8  c #0B6B25",
"9  c #066728",
"0  c #0B6728",
"q  c #076D2A",
"w  c #0D6D29",
"e  c #126323",
"r  c #116B25",
"t  c #116E2A",
"y  c #0C7126",
"u  c #0E7A25",
"i  c #06722C",
"p  c #0D732B",
"a  c #0E7A2D",
"s  c #12762E",
"d  c #12792E",
"f  c #1D7D2C",
"g  c #066532",
"h  c #156E31",
"j  c #0E7531",
"k  c #0E7A31",
"l  c #117630",
"z  c #1B7536",
"x  c #137930",
"c  c #197C32",
"v  c #117E3E",
"b  c #1E7E3D",
"n  c #20632F",
"m  c #23762D",
"M  c #237B2F",
"N  c #2A7D34",
"B  c #2B7D3D",
"V  c #327932",
"C  c #0F7754",
"Z  c #0F7458",
"A  c #117654",
"S  c #117B54",
"D  c #37654A",
"F  c #3C7F4A",
"G  c #107E7E",
"H  c #40654A",
"J  c #406D4A",
"K  c #40734A",
"L  c #407E4A",
"P  c #0D832F",
"I  c #12842E",
"U  c #19892D",
"Y  c #0E8432",
"T  c #0C8E35",
"R  c #0D853A",
"E  c #148434",
"W  c #188633",
"Q  c #148A36",
"!  c #1A8B36",
"~  c #138539",
"^  c #1E833C",
"/  c #158C39",
"(  c #198E39",
")  c #0F9732",
"_  c #139335",
"`  c #15933A",
"'  c #19933B",
"]  c #169A3D",
"[  c #1A9B3E",
"{  c #298533",
"}  c #238F33",
"|  c #29923B",
" . c #0DA426",
".. c #0FA338",
"X. c #14A035",
"o. c #15A833",
"O. c #16A13E",
"+. c #1AA43E",
"@. c #29A83D",
"#. c #32A13F",
"$. c #3EBD3E",
"%. c #0DC62C",
"&. c #16C132",
"*. c #12D332",
"=. c #1EE035",
"-. c #11ED33",
";. c #13F034",
":. c #18FE3F",
">. c #168B42",
",. c #159542",
"<. c #1A9641",
"1. c #159C41",
"2. c #1B9C42",
"3. c #1A9749",
"4. c #32814D",
"5. c #229344",
"6. c #229A44",
"7. c #229F4A",
"8. c #329740",
"9. c #3E9846",
"0. c #17A342",
"q. c #1CA345",
"w. c #1DAA46",
"e. c #1DA549",
"r. c #1EAD4A",
"t. c #1EB446",
"y. c #1EBB46",
"u. c #1EB04A",
"i. c #1DBC49",
"p. c #15A954",
"a. c #1EAC53",
"s. c #1EB152",
"d. c #21A543",
"f. c #28A647",
"g. c #21A946",
"h. c #28A947",
"j. c #22A649",
"k. c #21AD4B",
"l. c #32A140",
"z. c #32AB47",
"x. c #32AD49",
"c. c #23B347",
"v. c #20BB47",
"b. c #21B14C",
"n. c #2CB44B",
"m. c #20BB49",
"M. c #3EBD44",
"N. c #3EBD49",
"B. c #28A552",
"V. c #22AB53",
"C. c #29AC53",
"Z. c #3EBD59",
"A. c #14997E",
"S. c #1A9A7E",
"D. c #1DA27E",
"F. c #1AAB7E",
"G. c #1CB17E",
"H. c #32A064",
"J. c #21AF7E",
"K. c #54AA54",
"L. c #1BFE44",
"P. c #1FFE4B",
"I. c #20FE4B",
/* pixels */
"X X X X X X X X X X X X X X X X X X X X X X X X X X X X X X X X X X % @ X # X X X X X @ + X X X X X X X X X X X X X X X X X X X X X X X X X X X X X X X X X X X X X 8 ] b.b.j.# X X ",
"X X X X X X X X % @ X X X X X X X X X X X X X X X X X X X X X X n = a y & = X X X X X H % O % O X X X X X X X . X X X X X X X X X X X X X X X O X X @ X X X X X X X / ` u.b.k.X X X ",
"X X X X X X X X E y % 8 O X X X X X X X X X X X X X X X X X X % _ ` Q b.k.[ X X X X O 6 x x r X o X X X X X @ $ X O X X X X X X X X X X X X < 6 % @ & $ X # X X X X e.r.b.g.f X X X ",
"X X X X X X X % ] b.b.2.@ X X X X X X X X X X # @ X O X X X n d Q b.t.b.2.X X X X X 6 6 x x r X X X X X X O 4.8 % - O X X % % X @ X X X X X 6 6 x l M 8 @ 6 O X X 6 ] r.b.c.( X X X ",
"X X X X X X X / _ b.b.w.X X X X X % @ X X X X Q y # 6 O X % ` ] b.b.k.' 6 X X X X X w X X s 2 X X X X X < X ` k.b.[ O X X E p 5 8 % X X X X t x x s Q b.b.] O X X y / b.b.d.O X X X ",
"X X X X X X X q.b.b.g.f X X X X # d 5 5 = O X [ b.b.q.@ X E ` b.c.b.] 0.b.X X @ % % w X X w 6 X X X X X 6 w ' q.b.6.@ X X +.W d d s X X X % s d s l P b.k.[ X X X 6 ` b.b.w.O X X X ",
"X X X X X X 6 ] k.b.k.( X X X X W Y b.k.2.X 5 ` b.b.j.@ X e.b.b.r.` q.b.k.X X x t @ w X X f O X X X X X w x x E b.v.O X 7 Q W s x d X X @ w q s x d u.b.3.d X X X 5 1.k.b.g.O X X X ",
"X X X # # X p / b.b.d.O X X X n q.b.b.q.@ X w w b.b.e.8 6 ] X X N.c.b.V.j.X X x w < X X X t X X X X X @ w x x x b.d.O X ] v ~ s x c X < 6 w x s z E b.b.d.d X X X 8 [ b.b.v.O X X X ",
"X X X Q y # d ' b.u.g.X X X % <.` b.b.w.p X 2 @ g.b.b.2.p ] X X i.r.r.C.X X X x s @ O X x l X X X X X 6 w d x x b.w.O 6 ] x k l d w X r w l d t 8 W b.b.v.O X X X [ E u.b.d.X X X X ",
"X X % ] b.b.q.0.b.r.r.O X X Q ] u.b.n.d X X # r [ b.b.k.6 Y X X :.r.0.q.X X x x m @ X X s s X X X X < w q x x x b.d.@ [ W Q d s l 8 X 6 x x s s E Y b.b.d.X X X # 0.X X q.' X X X X ",
"X X ` Q b.b.c.` r.[ B.& @ O q.u.k.u.# ( X X 4.X X b.b.g.p X X X x x W a.X X d l k 5 X X d f X X X X 6 w l x d ] w.] 8 q.~ j d d 8 X % % 5 w % X X r.b.d.( X X X ( _ X X r.p X X X X ",
"X X q.b.b.g._ q ( ' x x t 6 O.u.b.C.( X X X ' X X b.k.g.% X X s s x l c.X X X s d X X X d p % $ X % t x d d T Q ( ( x x X X ( ' w X X O 5 % 8 X X b.b.w.d X X % q.r.X X x X X X X X ",
"X 6 ] e.r.k.' @ x x d d # w r.X X j.@ X X 8 1.X X b.b.y.X X X j s x x H.p X X A X X X l c 8 L 7 % w 8 X X x E w.E x d x X X N.p 6 X X X X X X X X b.b.q.X X X / ` r.X X ' X @ X X X ",
"X w 0.( 2.q.6 6 W d d d 2 6 i.X X b.% X X ( _ X X b.b.u.X X X s s x M ( x X X X X X x s s & ` b.b.~ l X X X Q ( ( d x m X X X b.2.O @ + X X % X X r.q.( X X % e.u.X X X 7 # = + X X ",
"X 6 0.W x x w r E d x *.% k q.X X k.X X X e.u.X X X b.b.X X e.~ x x v ! Y X X X X X d l a 6 ] b.1.6.8 6 X X E E l d u s ] X X b.O.# H % # % ` X X 2.d.d X X X ` r.X X e.b.b.[ O X X ",
"X w 1.W x x x k a d s s h E 0.X X c.% X X ] b.b.X X b.X X X X p s x z z j X X X X X X s 8 6 ` b.b.v.& X X X b l d x & w 7 X X b.v.6 8 d d d q.X X d s y X X X u.b.X X 1.b.b.d.O X X ",
"X w ` ~ d x s 0 s s l x 2.6 Y X X +.J X X ] u.b.X X r.X X X X x s d d E d s X X p X X X X p ` b.b.g.O X X X x d l s d l s X X b.b.` s x x ~ O.X X d x c X X X X X X X O.b.b.c.@ X X ",
"X q ] E s x l % p s d d 6.p @ X X ' d X X <.b.b.X X X X X X X q d d a E d d X X p l X X # 5 ] b.b.j.% X X X k d x x d l s X X b.b.p.p x x l k.X X s d d @ X X X X X w ] b.b.w.@ X X ",
"X w Y [ d l f 5 p d d W y.@ 5 X X ' d X X ` u.b.X X X 0.k.X X k s x M / d d a w w s X X # 5 k k.b.v.6 @ X X d d x d s s 2 X X e.b.x l s d ] k.X X d x v p X X X X X 1 ] u.b.K.@ X X ",
"X w = ` s s s s a s l x e.8 d X X X X X X q r.r.X X 6 ] b.X X x l v E x l &.6 8 x s X X 2 j % d.b.b.6.% X X d x E a s s q X X ` 2.x d x l E 1.X X s d s @ # X X E % W ] u.b.e.@ X X ",
"X X # p t d d d p s d x k.q./ 5 X X X X p @ ` 2.X X p ] k.X X X d s r.W x x s @ 5 6 X X q s x ^ b.b.k.8 X X s x W d l s X X X @ ~ Y d x a F p X X s x d y # X X X x x x u.u.C.X X X ",
"X X X < 5 d s s p d d d r.b.<.p X X X X # 5 ~ d X X 8 ] b.2.X X j ^ 1.` d d r % & X X X l d M O.b.b.e.w l d d ( [ s l d X X X 6 p ~ s x k q O X X d x p b.b.q.X X d x E u.t.d X X X ",
"X X X O F s d d s d d x q.I.& p X X X x O p Q d X X a ` b.b.X X s x x c x x d w X X X X d x k.2.b.b.B.x d d 2.s ( 6 1 X X X @ X s p s s k q.% X X s x s b.b.C.5 s x x x t.u.( X X X ",
"X X X X Q E d d p c x d X X Q x X X X k @ q <.x X X d E b.b.X X p x x x p.x d l @ < X X E k.( k.[ b.b.[ s j d ` ( % X X X @ 6 O q x s d ! C.a X X r s s b.b.c.p p s d x i.K.O X X X ",
"X X X 6 ` ] x x l x x d X X g.s p X X S p w ` E X X s r.b.q.X X p d x x A.d x p % X X X ` Q b.f.s q.k.b.h.X X X X X X Q b.b.2.% X a 6 ] / b.b.X X k w p e.b.k.3.w s x x k.C.X X X X ",
"X X X 6 k r.x x l s d X X X k.q.j X X d k.b.,.E X X d r.b.k.X X p x x x [ x x x w O X X 1.b.b.| p ] q.k.0.@ X X X X 7 Q b.b.] + # & 6 k w C.b.X X y O p E b.b.( s d l d V.' X X X X ",
"X X < p @ 3.! d x s l X X k.k.2.6 d l d b.b.7.} X X d r.b.b.X X w d x s d p d d s X X X ] b.b._ x d E k.C.X X X X X E P b.b.d.X H 6 % % E _ k.X X r.X 6 @ r.b.q.~ x x s @ ( X X X X ",
"X X L 7 x / w.W @.d X X X b.k.9.@ w p ~ b.b.2.k X X d 0.j.C.X X X t d d A E d x s @ X p ` u.e._ s x l s s X X X X X ` b.b.2.d X 6 d s s ..I X X X X X X 5 <.b.X X l x s X X + X O X ",
"X X ` k.b.2.q.[ 2.k X X l ] w ' X & 6 ~ b.b.K.% X X l E s Q @ X X p s x d y d x v & X 6 ] b.e.p.x x l X ' X X X X 6 ` b.b.2.d @ 6 x x x [ 6 X X ( ( X X w 7 X X X s x s X X 7 # 6 X ",
"X 6 ] b.b.j.d I [ / X X s s X ' X X w Y b.b.r.7 X X d x p s x X X X d l d ` s x s d X 6 ] b.1.Q d x l X X X X X X 6 1.b.b.g.# # p s x x s w X X X X X X 6 # X X E s x d X X b.b.2.+ ",
"X 6 k b.b.m.p s p B.X X } O X X X X y e ` w ' p 7 _ 2.( s d s d X X x x x 5 6 d x s X y Q b.e._ x x s X X X < X X 5 ] b.b.m.X # s s x d l w X X X X % @ X X X X l x U X X X b.b.2.@ ",
"X w @ w.b.b.[ s l l X X =.@ X X X X @ w p % W 6 % ` b.E ~ d x s X X X l s a X 8 % 8 X 6 ` b.j.p.x x f X X X 6 % O a Q b.b.e.O O d s l d x s X X X X E q X X X ' d x d X X _ b.k.m.O ",
"X X 5 ` b.k.e.w d d X X u.X % @ X @ 4.p x x s X 5 0.b.2.] c x x d X X x S @ O & X 8 X = 2.b.2.} l x t X X X t x x d Y b.b.g.X 1 p d x s x X X X X X 2.b.X X X r.W K.8 X X Q X X g.O ",
"X X w @ Q p s w d X X X 6.= p y 2 - ! E d d x @ 6 k b.b.[ l d s l x x x m X X X X X X 8 X X e._ l x k O X % w x x A u.u.e.a X # p s l X X X X O X 6 ] X X X X r.2.r.8 X X x X X h.@ ",
"X X X # p X Q w s X X 5 q.' Q b.b.2.' x s x d X p @ w.b.2.) s x d k d x c X X X X X X ` X X e.E d l s X X 0 8 d x d b.b.[ E + # s s l X X X X O X X X X X X X X t ` X X X x X X b.O ",
"X X X % + X 1 w d X X ` ] c.b.b.] s ~ E s x S X < 5 w.k.e.x x x j a W B.8 X X X X # + q.X X 6.x d l s O X p k s f a b.b.c.F 8 5 a x x X X X X X X X X X c z.X X X ( X X l X X X e.O ",
"X X X L w # 6 p x X X b.b.b.w.p # >.l l s x A @ 6 p P 0.2.*.l x s a ' g.8 X X X < X X / X X 0.d s x f O # p d l d / b.q.s ` b.W ~ d d X X x f X X X x x W d.X X X X X X k X X x C.X ",
"X X X ( b.b.( w s X X k.b.q.= ( s { l j s x A X s s d d p Y s x a s W f.@ X X X 6 X X X X X [ 8 s x p X < w d s d r.V.X ] [ k.E x x x X X x s X X X s x x j.1.X X X X 5 X X X S W X ",
"X X 6 ] b.b.1.w s X X w.g.` p X p l l x d x v @ t d x d < / r s s x d C.# X X X w X X X X 2./ p x x f @ 1 a s x d r.@ p 6 ] 0.W x s x X X l X X X q s x E u.q.X X X X X X X x x ` X ",
"X X 6 ] b.b.c.0 x X X q.c.d X & x a l k d x d < p d s I # X 6 q v x d _ q O X + r X X X O 2.l s s x d O < E s x X X ( X w 1.~ ` d x x X X x X X @ p s x x r.v.X X X 6 X X s x d X X ",
"X X w ` b.b.<.@ d X X W d.O $ 8 E x x x { 1 q % p x x v @ X X q s x d X X % X % q X X X X v.1 w s x x @ q 1.Q X X X X X 6 ] E x d M E o X x X X # w s x d b.q.6 X X 2.,.E s x d X X ",
"X X 8 ] b.r.h.1 s x d X X O w j l d x ( W X 8 < 5 s x C % # % % q s l X X 6 X % p X X X X r.2 l s x I Y q.[ 2.X X ( X X w ` E x d d ` X X s A # 8 5 d l S b.b.0.X X r.~ x d l a @ X ",
"X X w / e.q.i.1 p d x X X X X l a s x / s X X % O 8 1 k l x s & y w 2.X X q.O w s X X X X b.g./ x X X b.b.b.b.X X X X X 6 T E x x x <.E d x s X w x s l x b.b.j.5 ` b.Q a s d d X X ",
"X X l x x c f.1 d s l X X X X X s x <.g.O X X X X X # x x l d @ X q e.X X C.O 0 l X X X V.k.1.g.8 X X b.b.k.b.X X X X X w E ~ s x x 1.] s x d @ w a l d 6 t.b.b.w.p E >.E x W 8 X X ",
"X # s x x d h.1 p d x X X 8 X X W ! Q M.$ X X X X X < 6 s d p w @ w Y X X r.% % X X X Q s.b.b.q.% X X b.k.K.u X X X X X 6 k X X d W ,.p d % 8 % w l x f 9 0.b.b.V.% p a E W q 8 X X ",
"X < p d l x b.1 5 x 2.X X p X X ` / b.k.# $ X @ X X % X v d d b @ p # X X ` X @ X X X ( u.b.q.' X X X e.X X ` @ X X X O w @ X X r.^ p ` W X p q 5 s d t p Y b.b.k.X X X X X X X X X ",
"X % d s x x 0.@ p 1 r.X X h.X X u.u.C._ _ 7 % 5 X X X 8 W s d x & X # X X ( X s E X X M.b.b.r.p X X X s X X X X X X O + X q X X ! e.X X X X p x l s s 8 w @ ' t / % $ X # X X X X X ",
"X O w d d x K.% X p q.X X 2.X X E ~ @ ( ' b.j.] O X X p ` x x x s X X X X X X p x X X [ r.j.f X @ X X d s X X X X X D % # K X X p s X X X X s W d s s 6 X # p X ( L 8 @ 1 O X X X X ",
"X < p d x s x y X 6 Y X X N.X X X X ' p r.b.[ ' % O X X ,.Q x x p % X X X X # X p X X x k.b.' X 6 X X x x X X X X X 6 x x X X X + ( X X X 8 j k d d 5.+ X X X X X Q b.b.2.& @ X O X ",
"X X p s d d s <.5 p @ X X k.j.X X X % <.r.b.Q x x r X X ` r.x x l t X X X X X 5 d X X W k.g.X X w X X s x t X O X O 8 l X X X t 2 @ $ @ X w x x l l ~ O X X X X 6 _ b.b.0.d 6 = = O ",
"X X # i s d l k d % p X X [ X X X X E q.t.e.E x x w X X ] q.Q x d x X X X X % a x X X x b.k.O X X X X X x X X X X + p X X X k.[ x x w % X j l s d d x.O X X X X 5 2.b.b.r.E b.b.[ X ",
"X X < i d Q E W / x x X X X ' X X X q.b.b.L.W x x M X X 1.2.k.p.x x X X @ X L E X X X x b.c.O X X ( X X x X X X X X X X X X q.B.p s l w 1 6 p x d ! d.O X X X X 8 ` b.b.P.b.b.q.@ X ",
"X X X p p [ ( x s d c X X X X X X X e.k.b.L.Q d x s X X X b.e.B.w X X X % h ' q.X X x x k.w.8 X X ] X X X s X X X X X X l x r.C.r t d r % @ p E Q Q g.. . X . X ] Y b.b.a.k.b.b.d X ",
"X X X X p p Q ~ d X X X X X X X X X X k.b.L.E s x d O X X b.k.[ # X X l p <.Q e.X X x d r.M.] X X b.r.X X X X O X < 1 l x x q.2.> % 6 e X X  .1./ k.d.X   @ X X 2.r.b.r.g.b.b.g.X X ",
"X X X X X < p & z X X o X X X X X X X b.b.D.~ x s d @ X X b.b.h.% X X x c ` r.2.X X x E q.q.d.X X b.X X X X X @ @ 8 X l x s E q.6 .   X @ X 5 ] b.b.p.X . X X 8 ] b.b.B.q.k.b.k.O X ",
"X X X X X X X k p X X X X X X X X X X b.b.K./ s x x = X X b.b.C.& 6 w B E u.b.2.@ z x s W D.X X X b.X X X l x X . X o s x d x k ] X . X X X p ` b.b.d # . X   ' Y b.b.w.[ b.b.v.+ X ",
"X X X X X X X d W X X X X X X X X X X k.b.e.W x x I q X X b.r.B.# p x x d j.e.@ Q s x x s V.X X b.k.V.q.a l 6 @ . X X w d s d 2.E @ X . X X 6 ] k.g.s @ . X X 0.u.b.d.k.I b.b.+.X X ",
"X X X X @ X X x x X X X X X = # % X X X b.e.-.x x x +.X X b.' S.2 p x x x k.2.x < p s x 8 t X X b.J.' ( % E r @ . X X p s d s b.x u X   X . 5 ] b.2.%.# . X @ _ b.b.g.e.u.b.d.' X X ",
"X X X X + X X l X X X X X X ] a x 5 X X q.2.E s x d [ X X w.W x x A l x x c.` 7 5 T p d @ % X X w.g.( X < 0.p # . X @ p x x d q.] q.X . X X q 0.b.2.q @ . X , I b.b.g.] b.b.h.d X X ",
"X X X X X X X d X X p 6 X X b.b.k.[ X X X [ ( l x s x X X E s x l l s x s @ O.b.b./ 6 I X . X X r.h.@ X 1 Q a = . X   E x x R Y +.E & . X   - r.k.2.x @ . X ; r.u.e.2.0.b.b.q.# X X ",
"X X X X 6 X X s X X   X X X r.b.c.X X X X ,.<.x d x x X X X l s V x s x v ] _ k.b.2.% % 3 . X X e.c.O X E ] [ & . X X ~ s x s x v 2.% . X @ i s.b.2.` # . X * g.b.w.` 0.b.b.N.# X X ",
"X X X X p X X X X X   X X X r.j.' p X X X X 1.[ W ;.W w X X k s A E d x C 8 2.b.b.j.O @ , X X X r.w.O X 2.] 2.& . X X E s x l x l ] 6 . X @ N 0.b.2.] O . X X k.V.s 0.] b.b.w.X X X ",
"X X o X p X X X X X X X X s 0.h.' X % $ X X X r.[ t.s X X X s x x w.d d s s ] b.b.m.O # #   X X o.K.O X e.b.1.: . X X _ E x s x p ! p . . . E ` b.b._ @ . X < E X ( w.r.b.v.' X X X ",
"X X X X q.M.X X X X X X X p W e.O X L q # X X b.b.C.X X X X d d x ,.d d s s T b.k.g.@ 5 X . X @ t.g.@ w k k.Q 8 . . O a [ ' d x A P Q .   X D 1.b.b.$.X . X X ( ' y k b.b.e.' X X X ",
"X X X X k.u.q.E 8 # . X X s d V.@ X ' b.b.X X [ w ( X 5 X X X E 5.p ~ d x s Y b.b.d.# 6 @ X X X d.K.@ p @ ] j a X   X ' ] 2.l x l r ' X   . @ Q b.b.2.  . X . X X w % ` t ` X X X X ",
"X X X y k.u.q.Q 6 6   . X e d b.@ 6 O.b.b.q.% p X ( 5 Q c X X s x G k s s x b.b.2.x 8 % @ X X O _ +.# % < p X Q .   X % j.<.l d x s q X X X @ 0.k.q.s . . X . # @ X % p X ( X X X X ",
"X X X p r.u.2.~ r s X   X @ U C.X 5 q.c.b.C.@ X X 5 ` ~ x X X w p ~ x s d ) b.b.6.d l % & X X X I x x w X % @ X X . X X k.l.6 s x s O X X X @ 0.r.' W . . X X E w % 5 X X X X X X X ",
"X X X Q t.u.e.Q d r X   X @ p _ X k X X b.C.$ X 5 ] q.Q x X . X . p.s l s ] b.b.#.p d O   X @ y E d x s X E p O @   X @ u.' # p x s r . X X X 6 g.k .   . X # ] k.b.q.@ X X X X X X ",
"X X X 2.G.u.e.<.x 6 O X X   X ( X ` X X q.K.O 6 ] r.2.1.Z % X X X s w w p Q b.b.| a w @ . X @ a W s l s X ] k.] % . X @ q.` 1 & 6 p X X - a p u.e.a X X . X @ ] b.b.k.O X X X X X X ",
"X X X k.F.u.1.r.W 6 # X X @ X X X ] X X W p.2 W r.r.k.r.a s X   X 8 % 9 = E [ b.3.i e % . X @ 2.~ s x v 5 ( 2.[ :   X @ O.W O X & X r O ` a u.E @.X . X   X X X.b.b.r.& 6 O X X X X ",
"X X X r.t.b.b.1.[ y - X X X X X 6 ] X X W x x x ~ r.b.C.E = ,   X X =   . @ W [ 6.p q @ . X X [ } s l s x ] x r % X X X 2.' + X X X H 6 1.e.u.e._ X . %   .   I b.b.g.k.[ @ X X X X ",
"X X X r.u.b.b.b.1.E o.= % . X X 6 e.X X ~ X X z Q 2.Q _ / % &   . . s @ . X . v E w 8 # . X X 2.Y d x ~ ~ ` x 0 6 X   X 8 B @ X X X 6 x s E u.w.d X . - . . P = g.b.[ 2.2.% O X X X ",
"X X X k.u.b.b.k.b.r.` 6 8 % X X 1 q.X X p X X p p p ( ' X % a . . X % X . X @ s W % 6 % X X O r x d x p q.0.E t X X . . X s @ X X = p d x W j.x X X 2 % . . X X e.b./ x x t O X X X ",
"X X / k.u.k.r.r.w.k.b.- X X X X X X X X x X X d % 8 O X X E a X   X O @   X . d # # l 8 X X X 6 p d x d Q 1.Q x X X X . . I @ X X X W d x X X / X X w X   X X X 2.q.! x x w O X X X ",
"X X 3.C.b.b.1.W ' g.[ 6 X X X X X X X X d X X b.u.0.O X X ] ] @ . X . % X X O d # 5 ! - X .   X s s W W u.e.~ X X X X . X 6 @ @ X X W l x X X X X X @ * . X . @ k e.~ s x s O X X X ",
"X X d.k.b.k.7.@ & s P - X X X X X X X X d X X b.b.r.X X 6 [ ( @ . X X @   X X v h ,._ @ & X X X d s I Q V.j.w X X >.@ X X X X q X X ( x x X X X X X @ * . X . @ 8 Z.W x x f X X X X ",
"X X 3.k.b.j.u.#   X X y X X X w X X X X d X X b.V.X X X = ] ] # . X . #   X X m ` 0./ # X   X % l s a b.a.4 l X X 6 q & @ w s x X X x d X X X O X X O . X X . X F ,.Q d x s X X X X ",
"X X e.r.b.k.E 8 X   X 6 - X X ] X X X X X X X b.[ X X X d <.x #   X X = . X X d E ` % y X X @ # x x E i.X c 5 X X x E 6 w % 6 X X X d x X X % = # @ 3 . X . @ X c ] E s x z O X X X ",
"X X e.k.b.b.c x X . X o y . - ! Q X X X X X X b.X X X X ` ` ] @   X X %   X . s W = g X . X 8 x x s X X ` w l X X x / p l s x X X ` s x X X 6 6 d 1 X X X X # X w ` ~ d x d % X X X ",
"X X 2.6 b.k.e.p @ X   @ & e ! S l d X X X X X X X X X X e.r.Q % X X . =   X . s s @ . X . q 7 M d d X X % w X X X x k x d l X X X l l x X X t l w 0 # X X X X X 6 E ` d x x 6 < X X ",
"X X q.6 b.b.2.Q d X X X X a >.j x s X X X X X X X X X p 0.r.x R . X X % . X X s % % X X X X p p s x X X q p X X k c a j s x X X d d x x X X w d r @ X X ; - O X a ( x l x Q j.p # X ",
"X X q.6 b.V.b.2.s % X X - ` ~ ` E :.X X X X X X X O X 2.] b.2.} X X X % X X X s & X X X   X % X r 1 X X X X X X E ] s k x X X X ~ d x X X X 6 w # g . X : 2 X X E x x l W [ k.C.O X ",
"X X 2.6 r.k.b.e.' E p d r ` r.<.l.^ X X X X X X X & X ` u.b.3.( @ # % p X X # s d 6 = y X X X X % X X X X X X X ( q.a k s X X X k l x X X x p 6 & X X O = X X 5 ~ ~ d x d b.b.e.X X ",
"X X e.q.w.r.b.b.k.q.<.[ ~ X E Q p ` ` X X X X b.k.s d @ E / X ( = q 6 ] p ] e s s t d 8 % @ X X X X X X X X x x u.M.B d x m s E d l X X X E 6 % X X @ h.s X 5 ( c x d x / ' ] ( X X ",
"X X X 3.N.V.J.b.b.b.k.- X # p X ` # p X X X X b.k.k._ p x 8 ' X ` 2.r.r.1.s.@ E d d d d s X X X X X X X X X d x k.d 5 d x c < @ 8 k X X X s 6 X X # k.6 X X ( >.Q x s z 8 p X ( X X ",
"X X X X e.2.N.J.b.q.N.w.X X X X X X o X X p w.b.b.a.q.b.c.q.= @ P u.u.r.k.r.~ X t 6 y y X X X X X X q x E W [ 8.X ~ X 8 % 0 X X % w E ' E p s R p r.E C.X X ` Q x d d W X X X X X X ",
"X X X X X X q.r.r.X q.N.3.X X X X X X X X X Y u.b.b.V.b.b.x.Q ( U <.' [ s s X X % # w X 8 X X @ X 5 ( ,.] [ E 8 s X # % X 8 X X X 6 2.W ~ d s w u.E V.d X w p E / s ( 8 X X X X X X ",
"X X X X X X X X 6 X X e.e.X X X X X X X X X p ` ' q.@ 0.b.b.b.c.Y / a [ ( / X X X 5 8 q u - y 5 u [ 0.u.b.V.X ( X X X X X X X X X 0 2./ j s l W 0.W ( ( X X < j p ( E X X X X X X X ",
"X X X X X X X X X X X X X X o X X X X X X X O p p ( [ Q E V.b.u.b.r.X X X X X X X ( 2.e.0.[ q.[ 2.w.u.b.V.X s X X X X X X X X X X w a r.` ( r.p p ( ( X X X X X X X X X X X X X X X ",
"X X X X X X X X X X X X X X X X X X X X X X X X X X X # Q Q @.e.p X X X X X X X X P u.b.c.b.u.b.u.b.b.m.X ` X X X X X X X X X X X w p ] W 1.q X X X X X X X X X X X X X X X X X X X "
};
