/* XPM */
static char *result[] = {
/* columns rows colors chars-per-pixel */
"90 90 7 1 ",
"  c black",
". c #464646",
"X c gray37",
"o c #9C5A3C",
"O c #B4B4B4",
"+ c white",
"@ c None",
/* pixels */
"@@@@@@@@@@@@@@@@@@@@@@@@.X......X.......XX......X..........X.........X.@@@@@@@@@@@@@@@@@@@",
"@@@@@@@@@@@@@@@@@@@@.....X......X.......X.......X..........X.........X...@@@@@@@@@@@@@@@@@",
"@@@@@@@@@@@@@@@@@.........oooooooOooooooooooOoooooooooOooooooooooOooX.....@@@@@@@@@@@@@@@@",
"@@@@@@@@@@@@@@..X......ooooooooooOooooooooooOoooooooooOooooooooooOoooo....XX@@@@@@@@@@@@@@",
"@@@@@@@@@@@@....X..o.OoooooooooooOooooooooooOoooooooooOooooooooooOooooooXX....@@@@@@@@@@@@",
"@@@@@@@@@@......X.oooOoooooooooooOooooooooooOoooooooooOooooooooooOoooooooo.....@@@@@@@@@@@",
"@@@@@@@@@.......XooooOoooooooooooOooooooooooOoooooooooOooooooooooOoooooooooO....@@@@@@@@@@",
"@@@@@@@@X.....oooooooOoooooooooooOooooooooooOoooooooooOooooooooooOoooooooooOo...X@@@@@@@@@",
"@@@@@@..X....ooooooooOoooooooooooOooooooooooOoooooooooOooooooooooOoooooooooOoo.X..@@@@@@@@",
"@@@@.....X.ooooooooooOoooooooooooOooooooooooOoooooooooOooooooooooOoooooooooOooX....@@@@@@@",
"@@@X.....XoooooooooooOoooooooooooOooooooooooOoooooooooOooooooooooOoooooooooOooo.....@@@@@@",
"@@..X....ooooooooooooOoooooooooooOooooooooooOoooooooooOooooooooooOoooooooooOoooo.....@@@@@",
"@@..X...OooooooooooooOoooooooooooOooooooooooOoooooooooOooooooooooOoooooooooOooooo...X.@@@@",
"@....XooOooooooooooooOoooooooooooOooooooooooOoooooooooOooooooooooOoooooooooOooooo..X..@@@@",
"@X...oooOooooooooooooOoooooooooooOooooooooooOoooooooooOooooooooooOoooooooooOooooooX....@@@",
"..X.ooooOooooooooooooOoooooooooooOooooooooooOoooooooooOooooooooooOoooooooooOooooooo.....@@",
"..XoooooOooooooooooooOoooooooooooOooooooooooOoooooooooOooooooooooOoooooooooOooooooooo..X.@",
"...oooooOooooooooooooOoooooooooooOooooooooooOoooooooooOooooooooooOoooooooooOooooooooo.X..@",
"..ooooooOooooooooooooOoooooooooooOooooooooooOoooooooooOooooooooooOoooooooooOoooooooooO....",
"..ooooooOooooooooooooOoooooooooooOooooooooooOoooooooooOooooooooooOoooooooooOoooooooooOo...",
"..ooooooOooooooooooooOoooooooooooOooooooooooOoooooooooOooooooooooOoooooooooOoooooooooOoo..",
"XXooooooOooooooooooooOoooooooooooOooooooooooOoooooooooOooooooooooOoooooooooOoooooooooOoo..",
"..ooooooOooooooooooooOoooooooooooOooooooooooOoooooooooOooooooooooOoooooooooOoooooooooOoo..",
"..ooooooOooooooooooooOoooooooooooOooooooooooOoooooooooOooooooooooOoooooooooOoooooooooOoo..",
"..ooooooOooooooooooooOoooooooooooOooooooooooOoooooooooOooooooooooOoooooooooOoooooooooOoo..",
"XXooooooOooooooooooooOoooooooooooOooooooooooOoooooooooOooooooooooOoooooooooOoooooooooOooXX",
"..ooooooOooooooooooooOoooooooooooOooooooooooOoooooooooOooooooooooOoooooooooOoooooooooOoo..",
"..ooooooOooooooooooooOoooooooooooOooooooooooOoooooooooOooooooooooOoooooooooOoooooooooOoo..",
"..ooooooOooooooooooooOoooooooooooOooooooooooOoooooooooOooooooooooOoooooooooOoooooooooOoo..",
"..ooooooOooooooooooooOoooooooooooOooooooooooOoooooooooOooooooooooOoooooooooOoooooooooOoo..",
"..ooooooOooooooooooooOoooooooooooOooooooooooOoooooooooOooooooooooOoooooooooOoooooooooOoo..",
"XXooooooOooooooooooooOoooooooooooOooooooooooOoooooooooOooooooooooOoooooooooOoooooooooOoo..",
"..ooooooOooooooooooooOoooooooooooOooooooooooOoooooooooOooooooooooOoooooooooOoooooooooOooXX",
"..ooooooOooooooooooooOoooooooooooOooooooooooOoooooooooOooooooooooOoooooooooOoooooooooOoo..",
"..ooooooOooooooooooooOoooooooooooOooooooooooOoooooooooOooooooooooOoooooooooOoooooooooOoo..",
"..ooooooOooooooooooooOoooooooooooOooooooooooOoooooooooOooooooooooOoooooooooOoooooooooOoo..",
"..ooooooOooooooooooooOoooooooooooOooooooooooOoooooooooOooooooooooOoooooooooOoooooooooOoo..",
"XXooooooOooooooooooooOoooooooooooOooooooooooOoooooooooOooooooooooOoooooooooOoooooooooOooXX",
"..ooooooOooooooooooooOoooooooooooOooooooooooOoooooooooOooooooooooOoooooooooOoooooooooOoo..",
"   oo   OooooooooooooOoooooooooooOooooooooooOoooooooooOooooooooooOoooooooooOoooooooooOoo..",
"+++  +++ ooooooooooooOoooooooooooOooooooooooOoooooooooOooooooooooOoooooooooOoooooooooOoo..",
"+++  +++ ooooooooooooOoooooooooooOooooooooooOoooooooooOooooooooooOoooooooooOoooooooooOoo..",
"+++  +++ ooooooooooooOoooooooooooOooooooooooOoooooooooOooooooooooOoooooooooOoooooooooOoo..",
"   oo   OooooooooooooOoooooooooooOooooooooooOoooooooooOooooooooooOoooooooooOoooooooooOoo..",
"..ooooooOooooooooooooOoooooooooooOooooooooooOoooooooooOooooooooooOoooooooooOoooooooooOooXX",
"..ooooooOooooooooooooOoooooooooooOooooooooooOoooooooooOooooooooooOooooo              Ooo..",
"..ooooooOooooooooooooOoooooooooooOooooooooooOoooooooooOooooooooooOooooo     OOOO     Ooo..",
"..ooooooOooooooooooooOoooooooooooOooooooooooOoooooooooOooooooooooOooooo     OOOO     Ooo..",
"XXooooooOooooooooooooOoooooooooooOooooooooooOoooooooooOooooooooooOooooooo   OOOO    oOoo..",
"..ooooooOooooooooooooOoooooooooooOooooooooooOoooooooooOooooooooooOoooooooooo    oooooOoo..",
"..ooooooOooooooooooooOoooooooooooOooooooooooOoooooooooOooooooooooOooooooooo      ooooOooXX",
"..ooooooOooooooooooooOoooooooooooOooooooooooOoooooooooOooooooooooOoooooooo   oo   oooOoo..",
"   oo   OooooooooooooOoooooooooooOooooooooooOoooooooooOooooooooooOooooooo   oooo   ooOoo..",
"+++  +++ ooooooooooooOoooooooooooOooooooooooOoooooooooOooooooooooOooooooo  oooooo  ooOoo..",
"+++  +++ ooooooooooooOoooooooooooOooooooooooOoooooooooOooooooooooOooooooo  oooooo  ooOoo..",
"+++  +++ ooooooooooooOoooooooooooOooooooooooOoooooooooOooooooooooOooooooo  oooooo  ooOoo..",
"   oo   OooooooooooooOoooooooooooOooooooooooOoooooooooOooooooooooOooooooo  oooooo  ooOoo..",
"..ooooooOooooooooooooOoooooooooooOooooooooooOoooooooooOooooooooooOooooooo   oooo   ooOoo..",
"..ooooooOooooooooooooOoooooooooooOooooooooooOoooooooooOooooooooooOoooooooo   oo   oooOooXX",
"XXooooooOooooooooooooOoooooooooooOooooooooooOoooooooooOooooooooooOooooooooo      ooooOoo..",
"..ooooooOooooooooooooOoooooooooooOooooooooooOoooooooooOooooooooooOoooooooooO    oooooOoo..",
"..ooooooOooooooooooooOoooooooooooOooooooooooOoooooooooOooooooooooOoooooooooOoooooooooOoo..",
"..ooooooOooooooooooooOoooooooooooOooooooooooOoooooooooOooooooooooOoooooooooOoooooooooOoo..",
"..ooooooOooooooooooooOoooooooooooOooooooooooOoooooooooOooooooooooOoooooooooOoooooooooOoo..",
"..ooooooOooooooooooooOoooooooooooOooooooooooOoooooooooOooooooooooOoooooooooOoooooooooOooXX",
"XXooooooOooooooooooooOoooooooooooOooooooooooOoooooooooOooooooooooOoooooooooOoooooooooOoo..",
"..ooooooOooooooooooooOoooooooooooOooooooooooOoooooooooOooooooooooOoooooooooOoooooooooOoo..",
"..ooooooOooooooooooooOoooooooooooOooooooooooOoooooooooOooooooooooOoooooooooOoooooooooOoo..",
"..ooooooOooooooooooooOoooooooooooOooooooooooOoooooooooOooooooooooOoooooooooOoooooooooOoo..",
"..ooooooOooooooooooooOoooooooooooOooooooooooOoooooooooOooooooooooOoooooooooOoooooooooOoo..",
"..ooooooOooooooooooooOoooooooooooOooooooooooOoooooooooOooooooooooOoooooooooOoooooooooOooXX",
"..ooooooOooooooooooooOoooooooooooOooooooooooOoooooooooOooooooooooOoooooooooOoooooooooOoo..",
"XXooooooOooooooooooooOoooooooooooOooooooooooOoooooooooOooooooooooOoooooooooOoooooooooOoo..",
"..ooooooOooooooooooooOoooooooooooOooooooooooOoooooooooOooooooooooOoooooooooOoooooooooOoo..",
"..ooooooOooooooooooooOoooooooooooOooooooooooOoooooooooOooooooooooOoooooooooOoooooooooOoo..",
"..ooooooOooooooooooooOoooooooooooOooooooooooOoooooooooOooooooooooOoooooooooOoooooooooOoo..",
"..ooooooOooooooooooooOoooooooooooOooooooooooOoooooooooOooooooooooOoooooooooOoooooooooOoo..",
"..ooooooOooooooooooooOoooooooooooOooooooooooOoooooooooOooooooooooOoooooooooOoooooooooOoo..",
"..ooooooOooooooooooooOoooooooooooOooooooooooOoooooooooOooooooooooOoooooooooOoooooooooOooXX",
"..ooooooOooooooooooooOoooooooooooOooooooooooOoooooooooOooooooooooOoooooooooOoooooooooOoo..",
"XXooooooOooooooooooooOoooooooooooOooooooooooOoooooooooOooooooooooOoooooooooOoooooooooOoo..",
"..ooooooOooooooooooooOoooooooooooOooooooooooOoooooooooOooooooooooOoooooooooOoooooooooOoo..",
"..ooooooOooooooooooooOoooooooooooOooooooooooOoooooooooOooooooooooOoooooooooOoooooooooOoo..",
"..ooooooOooooooooooooOoooooooooooOooooooooooOoooooooooOooooooooooOoooooooooOoooooooooOoo..",
"..ooooooOooooooooooooOoooooooooooOooooooooooOoooooooooOooooooooooOoooooooooOoooooooooOoo..",
"..ooooooOooooooooooooOoooooooooooOooooooooooOoooooooooOooooooooooOoooooooooOoooooooooOooXX",
"XXooooooOooooooooooooOoooooooooooOooooooooooOoooooooooOooooooooooOoooooooooOoooooooooOoo..",
"..ooooooOooooooooooooOoooooooooooOooooooooooOoooooooooOooooooooooOoooooooooOoooooooooOoo..",
"..ooooooOooooooooooooOoooooooooooOooooooooooOoooooooooOooooooooooOoooooooooOoooooooooOoo..",
"..ooooooOooooooooooooOoooooooooooOooooooooooOoooooooooOooooooooooOoooooooooOoooooooooOoo.."
};
