/* XPM */
static char *result[] = {
/* columns rows colors chars-per-pixel */
"90 90 6 1 ",
"  c black",
". c #464646",
"X c gray37",
"o c #9C5A3C",
"O c white",
"+ c None",
/* pixels */
"++++++++++++++++++++++++.X......X.......XX......X..........X.........X.+++++++++++++++++++",
"++++++++++++++++++++.....X......X.......X.......X..........X.........X...+++++++++++++++++",
"+++++++++++++++++.........                                          X.....++++++++++++++++",
"++++++++++++++..X......                                               ....XX++++++++++++++",
"++++++++++++....X.. .                                                   XX....++++++++++++",
"++++++++++......X.                                                        .....+++++++++++",
"+++++++++.......X                                                           ....++++++++++",
"++++++++X.....                                                               ...X+++++++++",
"++++++..X....                                                                 .X..++++++++",
"++++.....X.                                                                   X....+++++++",
"+++X.....X                                                                     .....++++++",
"++..X....                                                                       .....+++++",
"++..X...                                                                         ...X.++++",
"+....X                                                                           ..X..++++",
"+X...o                                                                            X....+++",
"..X.oo                                                                             .....++",
"..Xooo                                                                               ..X.+",
"...ooo                                                                               .X..+",
"..oooo                                                                                ....",
"..oooo                                                                                 ...",
"..oooo                                                                                  ..",
"XXoooo                                                                                  ..",
"..oooo                                                                                  ..",
"..oooo                                                                                  ..",
"..oooo                                                                                  ..",
"XXoooo                                                                                  XX",
"..oooo                                                                                  ..",
"..oooo                                                                                  ..",
"..oooo                                                                                  ..",
"..oooo                                                                                  ..",
"..oooo                                                                                  ..",
"XXoooo                                                                                  ..",
"..oooo                                                                                  XX",
"..oooo                                                                                  ..",
"..oooo                                                                                  ..",
"..oooo                                                                                  ..",
"..oooo                                                                                  ..",
"XXoooo                                                                                  XX",
"..oooo                                                                                  ..",
"    oo                                                                                  ..",
"OOO oo                                                                                  ..",
"OOO oo                                                                                  ..",
"OOO oo                                                                                  ..",
"    oo                                                                                  ..",
"..oooo                                                                                  XX",
"..oooo                                                                                  ..",
"..oooo                                                                                  ..",
"..oooo                                                                                  ..",
"XXoooo                                                                                  ..",
"..oooo                                                                                  ..",
"..oooo                                                                                  XX",
"..oooo                                                                                  ..",
"    oo                                                                                  ..",
"OOO oo                                                                                  ..",
"OOO oo                                                                                  ..",
"OOO oo                                                                                  ..",
"    oo                                                                                  ..",
"..oooo                                                                                  ..",
"..oooo                                                                                  XX",
"XXoooo                                                                                  ..",
"..oooo                                                                                  ..",
"..oooo                                                                                  ..",
"..oooo                                                                                  ..",
"..oooo                                                                                  ..",
"..oooo                                                                                  XX",
"XXoooo                                                                                  ..",
"..oooo                                                                                  ..",
"..oooo                                                                                  ..",
"..oooo                                                                                  ..",
"..oooo                                                                                  ..",
"..oooo                                                                                  XX",
"..oooo                                                                                  ..",
"XXoooo                                                                                  ..",
"..oooo                                                                                  ..",
"..oooo                                                                                  ..",
"..oooo                                                                                  ..",
"..oooo                                                                                  ..",
"..oooo                                                                                  ..",
"..oooo                                                                                  XX",
"..oooo                                                                                  ..",
"XXoooo                                                                                  ..",
"..oooo                                                                                  ..",
"..oooo                                                                                  ..",
"..oooo                                                                                  ..",
"..oooo                                                                                  ..",
"..oooo                                                                                  XX",
"XXoooo                                                                                  ..",
"..oooo                                                                                  ..",
"..oooo                                                                                  ..",
"..oooo                                                                                  .."
};
